<?xml version="1.0" encoding="utf-8"?><svg xmlns="http://www.w3.org/2000/svg" xmlns:xlink="http://www.w3.org/1999/xlink" width="2231" height="1074" preserveAspectRatio="xMidYMid" viewBox="0 0 2231 1074" style="z-index:1;margin-right:-2px;display:block;background-repeat-y:initial;background-repeat-x:initial;background-color:rgb(231, 233, 236);animation-play-state:paused" ><g transform="" style="animation-play-state:paused" ><linearGradient id="lg-0.8604114131343534" x1="0" x2="1" y1="0" y2="0" style="animation-play-state:paused" ><stop stop-color="#1318f4" offset="0" style="animation-play-state:paused" ></stop>

  
<stop stop-color="#4babe4" offset="1" style="animation-play-state:paused" ></stop></linearGradient>
<path d="M 0 0 L 0 993.565 Q 223.1 940.065 446.2 903.121 T 892.4 736.547 T 1338.6 730.469 T 1784.8 589.691 T 2231 595.559 L 2231 0 Z" fill="url(#lg-0.8604114131343534)" opacity="0.4" style="opacity:0.4;animation-play-state:paused" ></path>
<path d="M 0 0 L 0 1056.36 Q 223.1 906.453 446.2 873.041 T 892.4 729.856 T 1338.6 740.728 T 1784.8 655.031 T 2231 494.053 L 2231 0 Z" fill="url(#lg-0.8604114131343534)" opacity="0.4" style="opacity:0.4;animation-play-state:paused" ></path>
<path d="M 0 0 L 0 944.615 Q 223.1 908.135 446.2 886.182 T 892.4 710.387 T 1338.6 639.711 T 1784.8 659.242 T 2231 459.358 L 2231 0 Z" fill="url(#lg-0.8604114131343534)" opacity="0.4" style="opacity:0.4;animation-play-state:paused" ></path>
<path d="M 0 0 L 0 927.297 Q 223.1 935.477 446.2 893.933 T 892.4 711.344 T 1338.6 719.22 T 1784.8 535.607 T 2231 430.841 L 2231 0 Z" fill="url(#lg-0.8604114131343534)" opacity="0.4" style="opacity:0.4;animation-play-state:paused" ></path>
<path d="M 0 0 L 0 1026.68 Q 223.1 899.525 446.2 875.87 T 892.4 829.728 T 1338.6 630.736 T 1784.8 538.252 T 2231 479.05 L 2231 0 Z" fill="url(#lg-0.8604114131343534)" opacity="0.4" style="opacity:0.4;animation-play-state:paused" ></path></g></svg>